# xmcd
#
# Track frame offsets:
#	183
#	15758
#	29033
#	42258
#	57545
#	69933
#	84283
#	99095
#	112420
#	131595
#	145395
#	159408
#	171945
#	188158
#	200808
#	214883
#
# Disc length: 3026 seconds
#
# Revision: 0
# Processed by: cddbd v1.5.1PL0 Copyright (c) Steve Scherf et al.
# Submitted via: audiograbber 1.82.01
#
DISCID=e40bd010
DTITLE=The Winston Brothers - Trucker Songs
DYEAR=1985
DGENRE=Country
TTITLE0=Truckdriving Stud
TTITLE1=There I Go Again
TTITLE2=Female Trouble
TTITLE3=Running Out Of You
TTITLE4=Lady Trucker
TTITLE5=Take Me Away
TTITLE6=My Little Van
TTITLE7=Stay By My Side
TTITLE8=A Heart That Is Broken
TTITLE9=Stranger
TTITLE10=Poor Old Broken Heart
TTITLE11=Love On The Road
TTITLE12=Santa Monica
TTITLE13=King Of All The Highways
TTITLE14=Wonder Why
TTITLE15=Truckstop Mama
EXTD=
EXTT0=
EXTT1=
EXTT2=
EXTT3=
EXTT4=
EXTT5=
EXTT6=
EXTT7=
EXTT8=
EXTT9=
EXTT10=
EXTT11=
EXTT12=
EXTT13=
EXTT14=
EXTT15=
PLAYORDER=
